<?xml version="1.0" standalone="no"?>
<!DOCTYPE svg PUBLIC "-//W3C//DTD SVG 20010904//EN"
 "http://www.w3.org/TR/2001/REC-SVG-20010904/DTD/svg10.dtd">
<svg version="1.0" xmlns="http://www.w3.org/2000/svg"
 width="100.000000pt" height="120.000000pt" viewBox="0 0 100.000000 120.000000"
 preserveAspectRatio="xMidYMid meet">

<g transform="translate(0.000000,120.000000) scale(0.100000,-0.100000)"
fill="#000000" stroke="none">
<path d="M230 1130 c0 -23 4 -30 20 -30 11 0 20 7 20 15 0 13 39 15 295 15
l295 0 -2 -427 c-2 -336 -6 -427 -15 -426 -7 2 -13 -6 -13 -17 0 -16 7 -20 30
-20 l30 0 0 460 0 460 -330 0 -330 0 0 -30z"/>
<path d="M160 1060 c0 -23 4 -30 20 -30 11 0 20 7 20 15 0 13 39 15 295 15
l295 0 -2 -427 c-2 -336 -6 -427 -15 -426 -7 2 -13 -6 -13 -17 0 -16 7 -20 30
-20 l30 0 0 460 0 460 -330 0 -330 0 0 -30z"/>
<path d="M110 540 l0 -480 320 0 320 0 0 480 0 480 -320 0 -320 0 0 -480z
m603 0 l-3 -441 -280 0 -280 0 -3 441 -2 440 285 0 285 0 -2 -440z"/>
<path d="M340 850 c0 -6 35 -10 85 -10 50 0 85 4 85 10 0 6 -35 10 -85 10 -50
0 -85 -4 -85 -10z"/>
<path d="M180 785 c0 -13 34 -15 245 -15 211 0 245 2 245 15 0 13 -34 15 -245
15 -211 0 -245 -2 -245 -15z"/>
<path d="M180 715 c0 -13 34 -15 245 -15 211 0 245 2 245 15 0 13 -34 15 -245
15 -211 0 -245 -2 -245 -15z"/>
<path d="M180 645 c0 -13 34 -15 245 -15 211 0 245 2 245 15 0 13 -34 15 -245
15 -211 0 -245 -2 -245 -15z"/>
<path d="M180 575 c0 -13 34 -15 245 -15 211 0 245 2 245 15 0 13 -34 15 -245
15 -211 0 -245 -2 -245 -15z"/>
<path d="M180 505 c0 -13 34 -15 245 -15 211 0 245 2 245 15 0 13 -34 15 -245
15 -211 0 -245 -2 -245 -15z"/>
<path d="M180 435 c0 -13 34 -15 245 -15 211 0 245 2 245 15 0 13 -34 15 -245
15 -211 0 -245 -2 -245 -15z"/>
<path d="M180 370 c0 -6 88 -10 245 -10 157 0 245 4 245 10 0 6 -88 10 -245
10 -157 0 -245 -4 -245 -10z"/>
<path d="M180 300 c0 -6 88 -10 245 -10 157 0 245 4 245 10 0 6 -88 10 -245
10 -157 0 -245 -4 -245 -10z"/>
<path d="M180 230 c0 -6 88 -10 245 -10 157 0 245 4 245 10 0 6 -88 10 -245
10 -157 0 -245 -4 -245 -10z"/>
</g>
</svg>
