<?xml version="1.0" standalone="no"?>
<!DOCTYPE svg PUBLIC "-//W3C//DTD SVG 20010904//EN"
 "http://www.w3.org/TR/2001/REC-SVG-20010904/DTD/svg10.dtd">
<svg version="1.0" xmlns="http://www.w3.org/2000/svg"
 width="100.000000pt" height="120.000000pt" viewBox="0 0 100.000000 120.000000"
 preserveAspectRatio="xMidYMid meet">

<g transform="translate(0.000000,120.000000) scale(0.100000,-0.100000)"
fill="#000000" stroke="none">
<path d="M40 605 l0 -565 410 0 410 0 0 110 c0 102 1 110 19 110 66 0 81 37
81 198 0 116 -2 132 -21 156 -13 16 -31 26 -47 26 l-27 1 31 13 c57 25 64 46
64 194 l0 134 -29 29 c-16 16 -39 29 -50 29 -19 0 -21 6 -21 65 l0 65 -410 0
-410 0 0 -565z m790 472 c0 -57 12 -77 45 -77 40 0 45 -18 45 -155 0 -137 -5
-155 -45 -155 -44 0 -45 -9 -45 -317 l0 -293 -375 0 -375 0 0 525 0 525 375 0
375 0 0 -53z m79 -481 c8 -9 11 -59 9 -152 l-3 -139 -27 -3 -28 -3 0 149 c0
82 3 152 7 155 11 11 30 8 42 -7z"/>
<path d="M430 705 l0 -105 35 0 35 0 0 105 0 105 -35 0 -35 0 0 -105z"/>
<path d="M430 495 c0 -33 2 -35 35 -35 33 0 35 2 35 35 0 33 -2 35 -35 35 -33
0 -35 -2 -35 -35z"/>
</g>
</svg>
