<?xml version="1.0" standalone="no"?>
<!DOCTYPE svg PUBLIC "-//W3C//DTD SVG 20010904//EN"
 "http://www.w3.org/TR/2001/REC-SVG-20010904/DTD/svg10.dtd">
<svg version="1.0" xmlns="http://www.w3.org/2000/svg"
 width="100.000000pt" height="120.000000pt" viewBox="0 0 100.000000 120.000000"
 preserveAspectRatio="xMidYMid meet">

<g transform="translate(0.000000,120.000000) scale(0.100000,-0.100000)"
fill="#000000" stroke="none">
<path d="M115 1148 c-2 -7 -17 -91 -34 -185 l-30 -173 31 -175 31 -175 -31
-177 c-18 -98 -32 -181 -32 -186 0 -4 192 -6 427 -5 l427 3 32 180 33 180 -31
177 -31 178 31 177 c18 98 32 181 32 186 0 4 -191 7 -425 7 -332 0 -427 -3
-430 -12z m802 -50 c-3 -13 -16 -83 -28 -155 l-23 -133 -384 0 -384 0 5 23 c3
12 16 82 28 155 l23 132 384 0 384 0 -5 -22z m-28 -460 c12 -73 25 -143 28
-155 l5 -23 -384 0 -384 0 -23 133 c-12 72 -25 142 -28 155 l-5 22 384 0 384
0 23 -132z m28 -240 c-3 -13 -16 -83 -28 -155 l-23 -133 -384 0 -384 0 5 23
c3 12 15 82 28 155 l22 132 385 0 384 0 -5 -22z"/>
<path d="M207 1043 c-20 -19 7 -23 153 -23 136 0 160 2 160 15 0 13 -24 15
-153 15 -85 0 -157 -3 -160 -7z"/>
<path d="M190 975 c0 -12 14 -15 70 -15 56 0 70 3 70 15 0 12 -14 15 -70 15
-56 0 -70 -3 -70 -15z"/>
<path d="M176 695 c5 -13 49 -15 310 -15 264 0 304 2 304 15 0 13 -41 15 -310
15 -271 0 -309 -2 -304 -15z"/>
<path d="M190 645 c0 -13 42 -15 320 -15 280 0 319 2 314 15 -5 13 -50 15
-320 15 -272 0 -314 -2 -314 -15z"/>
<path d="M196 585 c5 -13 47 -15 290 -15 246 0 284 2 284 15 0 13 -39 15 -290
15 -253 0 -289 -2 -284 -15z"/>
<path d="M202 538 c3 -10 44 -14 146 -16 122 -2 142 0 142 13 0 13 -22 15
-146 15 -112 0 -145 -3 -142 -12z"/>
<path d="M740 317 l-94 -72 37 -3 38 -3 -43 -52 c-24 -29 -36 -47 -28 -41 8 6
53 39 99 75 l85 64 -38 3 -37 3 42 50 c22 27 39 49 37 49 -1 0 -46 -33 -98
-73z"/>
<path d="M207 343 c-20 -19 4 -23 110 -21 82 2 118 7 121 16 3 9 -24 12 -110
12 -63 0 -118 -3 -121 -7z"/>
<path d="M195 290 c-15 -24 12 -30 130 -30 96 0 124 3 128 14 3 8 3 17 0 20
-11 10 -251 7 -258 -4z"/>
<path d="M180 225 c0 -12 14 -15 70 -15 56 0 70 3 70 15 0 12 -14 15 -70 15
-56 0 -70 -3 -70 -15z"/>
</g>
</svg>
