<?xml version="1.0" standalone="no"?>
<!DOCTYPE svg PUBLIC "-//W3C//DTD SVG 20010904//EN"
 "http://www.w3.org/TR/2001/REC-SVG-20010904/DTD/svg10.dtd">
<svg version="1.0" xmlns="http://www.w3.org/2000/svg"
 width="100.000000pt" height="120.000000pt" viewBox="0 0 100.000000 120.000000"
 preserveAspectRatio="xMidYMid meet">

<g transform="translate(0.000000,120.000000) scale(0.100000,-0.100000)"
fill="#000000" stroke="none">
<path d="M421 1145 c-96 -30 -145 -118 -146 -260 0 -89 1 -93 48 -187 41 -81
48 -102 42 -130 -9 -41 -45 -108 -59 -108 -10 -1 -26 -19 -123 -149 -46 -61
-83 -159 -83 -222 l0 -39 340 0 c265 0 340 3 340 13 0 37 -28 100 -76 170 -30
44 -54 90 -54 102 0 12 -7 28 -15 35 -19 16 -19 73 0 109 17 34 38 41 122 41
68 0 88 15 76 58 -3 12 0 29 7 37 6 8 9 19 6 24 -4 5 -2 12 2 15 5 3 7 16 5
30 -4 18 0 26 16 31 28 9 27 17 -14 78 -28 42 -34 59 -29 84 3 18 1 33 -5 37
-6 4 -11 19 -11 34 0 15 -9 47 -20 71 -11 24 -20 51 -20 61 0 60 -228 103
-349 65z m242 -51 c41 -14 51 -23 72 -63 13 -26 27 -65 30 -87 4 -21 10 -43
14 -49 3 -5 4 -20 3 -32 -2 -13 11 -43 29 -69 31 -45 31 -48 13 -61 -19 -14
-20 -21 -27 -143 l-2 -45 -65 3 c-56 3 -70 0 -94 -19 -37 -29 -56 -76 -56
-139 0 -38 4 -50 15 -50 9 0 15 -9 15 -22 0 -13 18 -50 41 -83 22 -33 49 -77
60 -98 l19 -37 -290 0 -290 0 0 28 c0 59 111 236 185 294 36 28 75 115 75 166
0 33 -10 63 -41 118 -22 41 -44 97 -49 126 -15 94 21 219 74 253 55 37 177 41
269 9z"/>
</g>
</svg>
